<svg width="117" height="100" viewBox="0 0 117 100" fill="none" xmlns="http://www.w3.org/2000/svg">
<mask id="path-1-inside-1_1_7" fill="white">
<path fill-rule="evenodd" clip-rule="evenodd" d="M7.76194 12.7701L45.6616 3.57158C48.8819 2.79001 52.1259 4.76692 52.9075 7.98714L56.4946 22.7666L38.8862 74.7748C37.2922 79.4828 39.8166 84.5916 44.5246 86.1856L49.8088 87.9747L27.3383 93.4284C24.1181 94.21 20.874 92.2331 20.0924 89.0129L3.34638 20.016C2.56481 16.7958 4.54172 13.5517 7.76194 12.7701ZM55.1197 89.7728L28.0459 96.3438C23.2156 97.5162 18.3494 94.5508 17.1771 89.7205L0.431016 20.7236C-0.741341 15.8932 2.22403 11.0271 7.05436 9.85476L44.9541 0.656216C49.7844 -0.516141 54.6505 2.44923 55.8229 7.27956L58.2927 17.4557L56.4946 22.7666L69.6536 76.984C70.4352 80.2042 68.4582 83.4483 65.238 84.2299L49.8088 87.9747L55.1197 89.7728ZM55.1197 89.7728L81.4649 98.6925C86.1729 100.286 91.2817 97.7621 92.8757 93.054L115.645 25.8039C117.239 21.0958 114.714 15.987 110.006 14.393L73.0659 1.8862C68.3578 0.292195 63.249 2.81662 61.655 7.52466L58.2927 17.4557L72.5689 76.2764C73.7413 81.1068 70.7759 85.9729 65.9456 87.1453L55.1197 89.7728Z"/>
</mask>
<path fill-rule="evenodd" clip-rule="evenodd" d="M7.76194 12.7701L45.6616 3.57158C48.8819 2.79001 52.1259 4.76692 52.9075 7.98714L56.4946 22.7666L38.8862 74.7748C37.2922 79.4828 39.8166 84.5916 44.5246 86.1856L49.8088 87.9747L27.3383 93.4284C24.1181 94.21 20.874 92.2331 20.0924 89.0129L3.34638 20.016C2.56481 16.7958 4.54172 13.5517 7.76194 12.7701ZM55.1197 89.7728L28.0459 96.3438C23.2156 97.5162 18.3494 94.5508 17.1771 89.7205L0.431016 20.7236C-0.741341 15.8932 2.22403 11.0271 7.05436 9.85476L44.9541 0.656216C49.7844 -0.516141 54.6505 2.44923 55.8229 7.27956L58.2927 17.4557L56.4946 22.7666L69.6536 76.984C70.4352 80.2042 68.4582 83.4483 65.238 84.2299L49.8088 87.9747L55.1197 89.7728ZM55.1197 89.7728L81.4649 98.6925C86.1729 100.286 91.2817 97.7621 92.8757 93.054L115.645 25.8039C117.239 21.0958 114.714 15.987 110.006 14.393L73.0659 1.8862C68.3578 0.292195 63.249 2.81662 61.655 7.52466L58.2927 17.4557L72.5689 76.2764C73.7413 81.1068 70.7759 85.9729 65.9456 87.1453L55.1197 89.7728Z" fill="white"/>
<path d="M45.6616 3.57158L46.3692 6.48694L46.3692 6.48694L45.6616 3.57158ZM7.76194 12.7701L7.05436 9.85476L7.05436 9.85476L7.76194 12.7701ZM52.9075 7.98714L49.9922 8.69472L49.9922 8.69472L52.9075 7.98714ZM38.8862 74.7748L41.7277 75.7369L41.7277 75.7369L38.8862 74.7748ZM44.5246 86.1856L43.5626 89.0272L43.5626 89.0272L44.5246 86.1856ZM27.3383 93.4284L28.0459 96.3438L28.0459 96.3438L27.3383 93.4284ZM20.0924 89.0129L17.1771 89.7205L17.1771 89.7205L20.0924 89.0129ZM3.34638 20.016L6.26174 19.3084L6.26174 19.3084L3.34638 20.016ZM28.0459 96.3438L28.7535 99.2592L28.7535 99.2592L28.0459 96.3438ZM17.1771 89.7205L14.2617 90.428L14.2617 90.428L17.1771 89.7205ZM0.431016 20.7236L-2.48434 21.4312L-2.48434 21.4312L0.431016 20.7236ZM7.05436 9.85476L7.76194 12.7701L7.76194 12.7701L7.05436 9.85476ZM44.9541 0.656216L45.6616 3.57158L45.6616 3.57158L44.9541 0.656216ZM55.8229 7.27956L52.9075 7.98714L52.9075 7.98714L55.8229 7.27956ZM69.6536 76.984L72.5689 76.2764L72.5689 76.2764L69.6536 76.984ZM65.238 84.2299L65.9456 87.1453L65.9456 87.1453L65.238 84.2299ZM81.4649 98.6925L80.5028 101.534L80.5028 101.534L81.4649 98.6925ZM92.8757 93.054L95.7173 94.0161L95.7173 94.0161L92.8757 93.054ZM115.645 25.8039L112.803 24.8418L112.803 24.8418L115.645 25.8039ZM110.006 14.393L110.968 11.5515L110.968 11.5515L110.006 14.393ZM73.0659 1.8862L74.028 -0.955359L74.028 -0.955359L73.0659 1.8862ZM61.655 7.52466L58.8135 6.5626L58.8135 6.5626L61.655 7.52466ZM72.5689 76.2764L75.4843 75.5689L75.4843 75.5689L72.5689 76.2764ZM65.9456 87.1453L65.238 84.2299L65.238 84.2299L65.9456 87.1453ZM44.9541 0.656216L7.05436 9.85476L8.46952 15.6855L46.3692 6.48694L44.9541 0.656216ZM55.8229 7.27956C54.6505 2.44923 49.7844 -0.516142 44.9541 0.656216L46.3692 6.48694C47.9793 6.09615 49.6014 7.08461 49.9922 8.69472L55.8229 7.27956ZM59.41 22.059L55.8229 7.27956L49.9922 8.69472L53.5792 23.4741L59.41 22.059ZM41.7277 75.7369L59.3361 23.7286L53.653 21.8045L36.0446 73.8127L41.7277 75.7369ZM45.4867 83.3441C42.348 82.2814 40.6651 78.8755 41.7277 75.7369L36.0446 73.8127C33.9193 80.0901 37.2852 86.9019 43.5626 89.0272L45.4867 83.3441ZM50.7708 85.1331L45.4867 83.3441L43.5626 89.0272L48.8467 90.8162L50.7708 85.1331ZM28.0459 96.3438L50.5164 90.8901L49.1012 85.0593L26.6307 90.5131L28.0459 96.3438ZM17.1771 89.7205C18.3494 94.5508 23.2156 97.5162 28.0459 96.3438L26.6307 90.5131C25.0206 90.9039 23.3986 89.9154 23.0078 88.3053L17.1771 89.7205ZM0.431016 20.7236L17.1771 89.7205L23.0078 88.3053L6.26174 19.3084L0.431016 20.7236ZM7.05436 9.85476C2.22403 11.0271 -0.741341 15.8932 0.431016 20.7236L6.26174 19.3084C5.87095 17.6983 6.85941 16.0763 8.46952 15.6855L7.05436 9.85476ZM28.7535 99.2592L55.8272 92.6882L54.4121 86.8574L27.3383 93.4284L28.7535 99.2592ZM14.2617 90.428C15.8249 96.8685 22.313 100.822 28.7535 99.2592L27.3383 93.4284C24.1181 94.21 20.874 92.2331 20.0924 89.0129L14.2617 90.428ZM-2.48434 21.4312L14.2617 90.428L20.0924 89.0129L3.34638 20.016L-2.48434 21.4312ZM6.34678 6.9394C-0.0936573 8.50254 -4.04749 14.9907 -2.48434 21.4312L3.34638 20.016C2.56481 16.7958 4.54172 13.5517 7.76194 12.7701L6.34678 6.9394ZM44.2465 -2.25915L6.34678 6.9394L7.76194 12.7701L45.6616 3.57158L44.2465 -2.25915ZM58.7382 6.57198C57.1751 0.131541 50.6869 -3.82229 44.2465 -2.25915L45.6616 3.57158C48.8819 2.79001 52.1259 4.76692 52.9075 7.98714L58.7382 6.57198ZM61.2081 16.7481L58.7382 6.57198L52.9075 7.98714L55.3773 18.1633L61.2081 16.7481ZM59.3361 23.7286L61.1343 18.4177L55.4511 16.4936L53.653 21.8045L59.3361 23.7286ZM72.5689 76.2764L59.41 22.059L53.5792 23.4741L66.7382 77.6916L72.5689 76.2764ZM65.9456 87.1453C70.7759 85.9729 73.7413 81.1068 72.5689 76.2764L66.7382 77.6916C67.129 79.3017 66.1405 80.9238 64.5304 81.3145L65.9456 87.1453ZM50.5164 90.8901L65.9456 87.1453L64.5304 81.3145L49.1012 85.0593L50.5164 90.8901ZM56.0817 86.9312L50.7708 85.1331L48.8467 90.8162L54.1576 92.6144L56.0817 86.9312ZM82.4269 95.8509L56.0817 86.9312L54.1576 92.6144L80.5028 101.534L82.4269 95.8509ZM90.0342 92.092C88.9715 95.2306 85.5656 96.9136 82.4269 95.8509L80.5028 101.534C86.7802 103.659 93.5919 100.293 95.7173 94.0161L90.0342 92.092ZM112.803 24.8418L90.0342 92.092L95.7173 94.0161L118.486 26.766L112.803 24.8418ZM109.044 17.2346C112.183 18.2973 113.866 21.7031 112.803 24.8418L118.486 26.766C120.611 20.4886 117.246 13.6768 110.968 11.5515L109.044 17.2346ZM72.1038 4.72775L109.044 17.2346L110.968 11.5515L74.028 -0.955359L72.1038 4.72775ZM64.4966 8.48673C65.5593 5.34803 68.9651 3.66508 72.1038 4.72775L74.028 -0.955359C67.7506 -3.08069 60.9388 0.28521 58.8135 6.5626L64.4966 8.48673ZM61.1343 18.4177L64.4966 8.48673L58.8135 6.5626L55.4511 16.4936L61.1343 18.4177ZM75.4843 75.5689L61.2081 16.7481L55.3773 18.1633L69.6536 76.984L75.4843 75.5689ZM66.6532 90.0606C73.0936 88.4975 77.0474 82.0093 75.4843 75.5689L69.6536 76.984C70.4351 80.2042 68.4582 83.4483 65.238 84.2299L66.6532 90.0606ZM55.8272 92.6882L66.6532 90.0606L65.238 84.2299L54.4121 86.8574L55.8272 92.6882Z" fill="white" mask="url(#path-1-inside-1_1_7)"/>
</svg>
