<?xml version="1.0" encoding="UTF-8"?>
<svg id="Calque_1" data-name="Calque 1" xmlns="http://www.w3.org/2000/svg" viewBox="0 0 88 88">
  <defs>
    <style>
      .cls-1 {
        fill: #46a8ea;
      }

      .cls-1, .cls-2, .cls-3, .cls-4, .cls-5 {
        stroke-width: 0px;
      }

      .cls-2 {
        fill: #297cd6;
      }

      .cls-3 {
        fill: #d2d5f9;
      }

      .cls-4 {
        fill: #b9b5ee;
      }

      .cls-5 {
        fill: #e8f3ff;
      }
    </style>
  </defs>
  <path class="cls-5" d="m26.07,21.89l10.2-10.2,6.67,6.67-4.82,4.82-12.06-1.29Z"/>
  <path class="cls-3" d="m64.82,49.88l4.82-4.82,6.67,6.67-10.28,10.28-1.21-12.14Z"/>
  <path class="cls-3" d="m68.98,72.42l-3.34,3.34-13.89-26.15-13.35-13.35-26.15-13.89,3.34-3.34,36.17,3.88,13.35,13.35,3.88,36.17Z"/>
  <path class="cls-4" d="m68.98,72.42l-3.34,3.34-13.89-26.15-6.67-6.67,13.35-13.35,6.67,6.67,3.88,36.17Z"/>
  <path class="cls-5" d="m78.24,23.11l-32.76,32.76c-4.91,4.91-10.89,8.6-17.47,10.8l-6.67-6.67c2.19-6.58,5.89-12.57,10.8-17.47L64.89,9.76c3.69-3.69,9.66-3.69,13.35,0,3.62,3.61,3.72,9.63,0,13.35h0Z"/>
  <path class="cls-3" d="m78.24,23.11l-32.76,32.76c-4.91,4.91-10.89,8.6-17.47,10.8l-3.34-3.34L78.24,9.76c3.62,3.61,3.72,9.63,0,13.35h0Z"/>
  <path class="cls-1" d="m31.47,76.56l-4.44,4.44-7.97-12.06-12.05-7.97,4.44-4.44,16.15,3.87,3.87,16.15Z"/>
  <path class="cls-2" d="m31.47,76.56l-4.44,4.44-7.97-12.06,8.54-8.54,3.87,16.15Z"/>
  <path class="cls-5" d="m13.46,71.47l7.91-7.91,3.07,3.07-7.91,7.91-3.07-3.07Z"/>
  <path class="cls-3" d="m14.99,73l7.91-7.91,1.53,1.53-7.91,7.91-1.53-1.53Z"/>
</svg>