<?xml version="1.0" encoding="UTF-8"?>
<svg id="Calque_1" data-name="Calque 1" xmlns="http://www.w3.org/2000/svg" viewBox="0 0 88 88">
  <defs>
    <style>
      .cls-1 {
        fill: #474759;
      }

      .cls-1, .cls-2, .cls-3, .cls-4, .cls-5, .cls-6, .cls-7, .cls-8 {
        stroke-width: 0px;
      }

      .cls-2 {
        fill: #d9e5ff;
      }

      .cls-3 {
        fill: #666680;
      }

      .cls-4 {
        fill: #ff7a4d;
      }

      .cls-5 {
        fill: #ffe6b3;
      }

      .cls-6 {
        fill: #e64545;
      }

      .cls-7 {
        fill: #ecf2ff;
      }

      .cls-8 {
        fill: #ffd580;
      }
    </style>
  </defs>
  <path class="cls-3" d="m70.85,76.37l-3.22-4.3h4.3v-4.3h-7.52l-5.8-7.73-3.44,2.58,3.87,5.16h-30.07l3.87-5.16-3.44-2.58-5.8,7.73h-7.52v4.3h4.3l-3.22,4.3h-5.37v4.3h64.45v-4.3h-5.37Zm-45.11-4.3h36.52l3.22,4.3H22.52l3.22-4.3Z"/>
  <path class="cls-1" d="m67.63,72.07h4.3v-4.3h-7.52l-5.8-7.73-3.44,2.58,3.87,5.16h-15.04v4.3h18.26l3.22,4.3h-21.48v4.3h32.22v-4.3h-5.37l-3.22-4.3Z"/>
  <path class="cls-3" d="m63.33,7.34H24.67v4.3h8.59v8.52h4.3v-8.52h12.89v8.52h4.3v-8.52h8.59v-4.3Z"/>
  <path class="cls-1" d="m44,11.63h6.44v8.52h4.3v-8.52h8.59v-4.3h-19.33v4.3Z"/>
  <path class="cls-4" d="m67.63,63.48H20.37V21.21l1.35-.54c10.16-4.07,26.14-7.36,44.56,0l1.35.54v42.27Z"/>
  <path class="cls-6" d="m44,16.3v47.18h23.63V21.21l-1.35-.54c-7.98-3.19-15.49-4.37-22.28-4.37Z"/>
  <path class="cls-7" d="m59.04,46.29h-30.08v-19.11l1.57-.44c8.86-2.45,18.01-2.48,26.93,0l1.57.44v19.11Z"/>
  <g id="Train">
    <path class="cls-5" d="m28.96,50.59h4.3v4.3h-4.3v-4.3Z"/>
    <path class="cls-8" d="m54.74,50.59h4.3v4.3h-4.3v-4.3Z"/>
  </g>
  <path class="cls-2" d="m44,24.89v21.4h15.04v-19.11l-1.57-.44c-4.45-1.24-8.96-1.85-13.46-1.85Z"/>
</svg>