<?xml version="1.0" encoding="UTF-8"?>
<svg id="Calque_1" data-name="Calque 1" xmlns="http://www.w3.org/2000/svg" viewBox="0 0 88 88">
  <defs>
    <style>
      .cls-1 {
        fill: #f99295;
      }

      .cls-1, .cls-2, .cls-3, .cls-4, .cls-5, .cls-6, .cls-7 {
        stroke-width: 0px;
      }

      .cls-2 {
        fill: #56535a;
      }

      .cls-3 {
        fill: #888890;
      }

      .cls-4 {
        fill: #ffdc40;
      }

      .cls-5 {
        fill: #ffea84;
      }

      .cls-6 {
        fill: #ffab15;
      }

      .cls-7 {
        fill: #fcacab;
      }
    </style>
  </defs>
  <path class="cls-7" d="m66.51,76.68h-12.79l-1.09-4.36c-2.76.56-5.61.84-8.51.84s-5.75-.28-8.51-.85l-1.09,4.36h-12.79l2.21-8.82c-4.41-2.68-7.77-6.21-9.67-10.16h-6.15v-15.47h6.15c1.1-2.28,2.69-4.44,4.69-6.37l-5.38-5.38,1.49-1.49c1.99-1.99,4.64-3.09,7.46-3.09s5.47,1.1,7.46,3.09l.15.15c2.15-.77,4.41-1.37,6.75-1.76h14.49c6.73,1.15,12.85,3.94,17.24,7.86,4.61,4.12,7.15,9.36,7.15,14.73,0,3.76-1.25,7.5-3.6,10.8-1.94,2.71-4.63,5.14-7.86,7.1l2.21,8.82Z"/>
  <path class="cls-1" d="m74.51,43.48c-1.18-3-3.18-5.82-5.9-8.25-4.39-3.92-10.51-6.71-17.24-7.86h-7.25v45.8c2.9,0,5.75-.28,8.51-.84l1.09,4.36h12.79l-2.21-8.82c3.22-1.96,5.92-4.39,7.86-7.1,2.36-3.3,3.6-7.03,3.6-10.8,0-2.4,1.96-4.36,4.36-4.36v-4.22c-2.14,0-4.11.79-5.61,2.1Z"/>
  <rect class="cls-3" x="35.68" y="34.77" width="16.87" height="4.22"/>
  <path class="cls-2" d="m25.84,48.55c-1.55,0-2.81-1.26-2.81-2.81s1.26-2.81,2.81-2.81,2.81,1.26,2.81,2.81-1.26,2.81-2.81,2.81Z"/>
  <path class="cls-4" d="m44.12,30.41c-5.82,0-10.55-4.73-10.55-10.55s4.73-10.55,10.55-10.55,10.55,4.73,10.55,10.55-4.73,10.55-10.55,10.55Z"/>
  <path class="cls-6" d="m44.12,9.32v21.09c5.82,0,10.55-4.73,10.55-10.55s-4.73-10.55-10.55-10.55Z"/>
  <path class="cls-5" d="m44.12,13.54c-3.49,0-6.33,2.84-6.33,6.33s2.84,6.33,6.33,6.33,6.33-2.84,6.33-6.33-2.84-6.33-6.33-6.33Z"/>
  <path class="cls-4" d="m44.12,13.54v12.66c3.49,0,6.33-2.84,6.33-6.33s-2.84-6.33-6.33-6.33Z"/>
  <rect class="cls-2" x="44.12" y="34.77" width="8.44" height="4.22"/>
</svg>