<?xml version="1.0" encoding="UTF-8"?>
<svg id="Calque_1" data-name="Calque 1" xmlns="http://www.w3.org/2000/svg" viewBox="0 0 88 88">
  <defs>
    <style>
      .cls-1 {
        fill: #4a696f;
      }

      .cls-1, .cls-2, .cls-3, .cls-4, .cls-5, .cls-6 {
        stroke-width: 0px;
      }

      .cls-2 {
        fill: #9bf;
      }

      .cls-3 {
        fill: #384949;
      }

      .cls-4 {
        fill: #fb3;
      }

      .cls-5 {
        fill: #fd9;
      }

      .cls-6 {
        fill: #69f;
      }
    </style>
  </defs>
  <path class="cls-3" d="m42.98,27.44l-2.86-2.86,11.44-11.44c2.37-2.37,6.22-2.37,8.58,0l2.86,2.86-1.05,2.39-1.81.47-2.86-2.86c-.79-.79-2.07-.79-2.86,0l-11.44,11.44Z"/>
  <path class="cls-2" d="m63,16L26.57,52.44l.91,2.26,3.35,2,22.95-21.65,13.45-14.82-.9-2.25-3.32-1.97Z"/>
  <path class="cls-1" d="m13.3,71.46l-3.44,3.42,1.4,1.42,2.45-1.43.98-2.01-.29-1.14-1.1-.26Z"/>
  <path class="cls-3" d="m11.26,76.3l1.43,1.45,3.46-3.4-.29-1.07-1.17-.41-3.43,3.44Z"/>
  <path class="cls-2" d="m25.11,62.42l-.93-2.28-3.34-1.99-2.86,2.86-4.68,10.44,1.39,1.4,6.11-4.77,4.31-5.67Z"/>
  <path class="cls-6" d="m26.57,69.6l2.86-2.86-1.91-3.26-2.41-1.06-10.42,10.44,1.47,1.48,10.41-4.75Z"/>
  <path class="cls-3" d="m69.04,78.07H31.62v-4.05h37.42c1.67,0,3.03-1.36,3.03-3.03s-1.36-3.03-3.03-3.03h-4.05c-3.9,0-7.08-3.18-7.08-7.08s3.18-7.08,7.08-7.08h13.15v4.05h-13.15c-1.67,0-3.03,1.36-3.03,3.03,0,1.67,1.36,3.03,3.03,3.03h4.05c3.9,0,7.08,3.18,7.08,7.08s-3.18,7.08-7.08,7.08h0Z"/>
  <path class="cls-6" d="m30.83,56.7l1.8,3.15,2.52,1.17,36.44-36.44-2.15-3.49-2.21-.86L30.83,56.7Z"/>
  <path class="cls-1" d="m67.29,11.71l-4.29,4.29,4.22,4.22,2.86-1.52,5.71-7.07c-2.38-2.29-6.16-2.27-8.5.07Z"/>
  <path class="cls-3" d="m75.88,11.71s-.05-.05-.08-.07l-8.57,8.59,4.36,4.36,4.29-4.29c2.37-2.37,2.37-6.21,0-8.58h0Z"/>
  <path class="cls-5" d="m20.85,58.16l4.26,4.26,3.22-1.88,2.5-3.85-4.26-4.26-5.72,5.72Z"/>
  <path class="cls-4" d="m29.43,66.74l5.72-5.72-4.32-4.32-5.72,5.73,4.32,4.32Z"/>
</svg>