<?xml version="1.0" encoding="UTF-8"?>
<svg id="Calque_1" data-name="Calque 1" xmlns="http://www.w3.org/2000/svg" viewBox="0 0 88 88">
  <defs>
    <style>
      .cls-1 {
        fill: #4f2f25;
      }

      .cls-1, .cls-2, .cls-3, .cls-4, .cls-5, .cls-6, .cls-7, .cls-8, .cls-9, .cls-10 {
        stroke-width: 0px;
      }

      .cls-2 {
        fill: #49a420;
      }

      .cls-3 {
        fill: #7d4b3b;
      }

      .cls-4 {
        fill: #9bdc05;
      }

      .cls-5 {
        fill: #9f7651;
      }

      .cls-6 {
        fill: #ff9000;
      }

      .cls-7 {
        fill: #fff26c;
      }

      .cls-8 {
        fill: #ffd298;
      }

      .cls-9 {
        fill: #ffd322;
      }

      .cls-10 {
        fill: #ffe0ba;
      }
    </style>
  </defs>
  <g>
    <g>
      <path class="cls-1" d="m59.19,16.1v5.84l.9,1.54h2.48l.95-1.54v-5.84h-4.33Z"/>
      <path class="cls-2" d="m63.52,21.93c3.84,1.13,6.43,5.19,5.49,9.3-.3,1.31,0,2.68.84,3.73,1.8,2.23,2.64,5.14,2.33,7.99l-2.83,3.54h-13.77l-2.09-3.54-2.29-1.56v-5.53l1.89-1.28c.62-.98.86-2.2.6-3.35-.94-4.11,1.65-8.16,5.49-9.3.7-.2,1.43-.3,2.19-.3s1.46.11,2.14.3h0Z"/>
    </g>
    <g>
      <path class="cls-4" d="m33.61,14.01c-6.44.33-11.44,6.23-10.68,12.65l1.08,1.99h4.83l1.35-2.37c3.51-2.98,4.88-7.9,3.42-12.26Z"/>
      <path class="cls-6" d="m37.21,31.03c-2.25-3.03-5.93-5.1-9.99-5.1-6.82,0-12.34,5.53-12.34,12.34,0,1.55.41,3.31.94,4.68l1.4,3.14h15.47l1.81-3.14,2.28-2.02.96-7.78-.53-2.12Z"/>
    </g>
    <g>
      <path class="cls-9" d="m53.5,37.12v5.83l-.96,3.54h-7.55l-.99-3.54-3.41-7.55,3.41-11.09c2.54,0,4.61,2.06,4.61,4.61v.7c2.15.95,3.81,2.79,4.52,5.05.24.78.37,1.6.37,2.46h0Z"/>
      <path class="cls-7" d="m44,24.31v18.64l-1.08,3.54h-7.39l-1.03-3.54v-5.83c0-2.56,1.17-4.85,3.01-6.35,0,0,.01,0,.02-.01.56-.46,1.19-.85,1.86-1.14v-.7c0-2.54,2.06-4.61,4.61-4.61h0Z"/>
    </g>
  </g>
  <g>
    <g>
      <path class="cls-1" d="m61.96,58.1c0,2.12-.72,4.05-1.88,5.44-1.16,1.39-2.76,2.25-4.53,2.25h-11.55l-4.49-7.33,4.49-8.07h11.55c3.54,0,6.41,3.45,6.41,7.7h0Z"/>
      <path class="cls-3" d="m44,50.4v15.4h-11.55c-3.54,0-6.41-3.45-6.41-7.7,0-2.12.72-4.05,1.88-5.44,1.16-1.39,2.76-2.25,4.53-2.25h11.55Z"/>
    </g>
    <path class="cls-3" d="m75.5,44.74v26.16l-3.32,3.09h-28.19l-3.72-5.38,3.72-5.9h8.3c1.27,0,2.42-.52,3.26-1.35s1.35-1.99,1.35-3.26c0-2.54-2.06-4.61-4.61-4.61h-8.3l-3.72-5.32,3.72-5.23h28.19l3.32,1.78Z"/>
    <path class="cls-5" d="m32.45,54.84c-.83.83-1.35,1.99-1.35,3.26,0,2.54,2.06,4.61,4.61,4.61h8.3v11.28H15.81l-3.82-4.84v-23.16l3.49-2.53.32-.5h0s28.19-.01,28.19-.01v10.54h-8.3c-1.27,0-2.42.52-3.26,1.35h0Z"/>
    <path class="cls-10" d="m7.02,42.95h8.79v31.03H7.02v-31.03Z"/>
    <path class="cls-8" d="m72.19,42.95h8.79v31.03h-8.79v-31.03Z"/>
  </g>
</svg>