<?xml version="1.0" encoding="UTF-8"?>
<svg id="Calque_1" data-name="Calque 1" xmlns="http://www.w3.org/2000/svg" viewBox="0 0 88 88">
  <defs>
    <style>
      .cls-1 {
        fill: #73335e;
      }

      .cls-1, .cls-2, .cls-3, .cls-4, .cls-5, .cls-6, .cls-7, .cls-8, .cls-9 {
        stroke-width: 0px;
      }

      .cls-2 {
        fill: #2944cc;
      }

      .cls-3 {
        fill: #1f3399;
      }

      .cls-4 {
        fill: #a66b6b;
      }

      .cls-5 {
        fill: #8c4d62;
      }

      .cls-6 {
        fill: #ece6f2;
      }

      .cls-7 {
        fill: #fd3;
      }

      .cls-8 {
        fill: #fff5f5;
      }

      .cls-9 {
        fill: #fb3;
      }
    </style>
  </defs>
  <path class="cls-5" d="m57.51,6h-6.83l-1.48,38,1.48,38h6.83l6.25-33.36v-9.29l-6.25-33.36Z"/>
  <path class="cls-1" d="m46.23,6l-1.48,38,1.48,38h4.45V6h-4.45Z"/>
  <path class="cls-5" d="m46.23,6h-4.45l-1.48,38,1.48,38h4.45V6Z"/>
  <path class="cls-4" d="m37.32,6l-1.48,38,1.48,38h4.45V6h-4.45Z"/>
  <path class="cls-5" d="m32.87,6l-1.48,38,1.48,38h4.45V6h-4.45Z"/>
  <path class="cls-4" d="m26.03,6l-6.25,33.36v9.29l6.25,33.36h6.83V6h-6.83Z"/>
  <path class="cls-7" d="m64.19,41.77h6.68v4.45h-6.68v-4.45Z"/>
  <path class="cls-9" d="m41.77,19.36l-1.48,24.64,1.48,24.64c13.59,0,24.64-11.05,24.64-24.64s-11.05-24.64-24.64-24.64Z"/>
  <path class="cls-7" d="m17.13,44c0,13.59,11.05,24.64,24.64,24.64V19.36c-13.59,0-24.64,11.05-24.64,24.64Z"/>
  <path class="cls-6" d="m41.77,23.81l-1.48,20.19,1.48,20.19c11.13,0,20.19-9.06,20.19-20.19s-9.06-20.19-20.19-20.19Z"/>
  <path class="cls-8" d="m21.58,44c0,11.13,9.06,20.19,20.19,20.19V23.81c-11.13,0-20.19,9.06-20.19,20.19Z"/>
  <path class="cls-3" d="m53.06,41.77h-9.06v-9.06h-2.23l-1.48,11.28,1.48,2.23h11.28v-4.45Z"/>
  <path class="cls-2" d="m39.55,32.72h2.23v13.51h-2.23v-13.51Z"/>
</svg>