<?xml version="1.0" encoding="UTF-8"?>
<svg id="Calque_1" data-name="Calque 1" xmlns="http://www.w3.org/2000/svg" viewBox="0 0 88 88">
  <defs>
    <style>
      .cls-1 {
        fill: #d0cdd2;
      }

      .cls-1, .cls-2, .cls-3, .cls-4, .cls-5, .cls-6 {
        stroke-width: 0px;
      }

      .cls-2 {
        fill: #dfdfe1;
      }

      .cls-3 {
        fill: #f1f1f3;
      }

      .cls-4 {
        fill: #fff;
      }

      .cls-5 {
        fill: #ffdb00;
      }

      .cls-6 {
        fill: #ffea84;
      }
    </style>
  </defs>
  <path class="cls-2" d="m52.44,34.45h-14.71l-1.3-8.98c-.17-1.2.18-2.41.97-3.32s1.94-1.44,3.15-1.44h9.07c1.21,0,2.36.52,3.15,1.44s1.15,2.13.97,3.32l-1.3,8.98Z"/>
  <path class="cls-1" d="m52.77,22.14c-.79-.91-1.94-1.44-3.15-1.44h-4.54v13.75h7.36l1.3-8.98c.17-1.2-.18-2.41-.97-3.32Z"/>
  <path class="cls-6" d="m68,80.55H22.17v-44.02c0-3.45,2.8-6.25,6.25-6.25h33.33c3.45,0,6.25,2.8,6.25,6.25v44.02Z"/>
  <path class="cls-3" d="m57.05,22.09h-23.94l-2.61-2.61v-7.42l2.61-2.61h23.94l2.61,2.61v7.42l-2.61,2.61Z"/>
  <polygon class="cls-2" points="57.05 9.45 45.08 9.45 45.08 22.09 57.05 22.09 59.66 19.48 59.66 12.06 57.05 9.45"/>
  <path class="cls-5" d="m61.75,30.28h-16.66v50.27h22.91v-44.02c0-3.45-2.8-6.25-6.25-6.25Z"/>
  <path class="cls-4" d="m56.89,60.97h-23.61v-19.44h23.61v19.44Z"/>
  <path class="cls-3" d="m56.89,60.97h-11.8v-19.44h11.8v19.44Z"/>
</svg>