<?xml version="1.0" encoding="UTF-8"?>
<svg id="Calque_1" data-name="Calque 1" xmlns="http://www.w3.org/2000/svg" viewBox="0 0 88 88">
  <defs>
    <style>
      .cls-1 {
        fill: #f7b239;
      }

      .cls-1, .cls-2, .cls-3, .cls-4, .cls-5, .cls-6 {
        stroke-width: 0px;
      }

      .cls-2 {
        fill: #2ba5f7;
      }

      .cls-3 {
        fill: #2197d8;
      }

      .cls-4 {
        fill: #ccc;
      }

      .cls-5 {
        fill: #e09b2d;
      }

      .cls-6 {
        fill: #e6e6e6;
      }
    </style>
  </defs>
  <path class="cls-5" d="m56.78,9.08v16.44h-9.02V9.08c0-2.49,2.02-4.51,4.51-4.51.33,0,.66.04.97.1,2.03.44,3.54,2.25,3.54,4.41Z"/>
  <path class="cls-1" d="m56.78,9.08v16.44h-7.08V9.08c0-2.16,1.52-3.96,3.54-4.41,2.03.44,3.54,2.25,3.54,4.41Z"/>
  <path class="cls-3" d="m59.88,74.71l-.06,5.45c-.06,1.83-1.56,3.28-3.39,3.28h-28.4c-1.83,0-3.33-1.45-3.39-3.28l-.06-5.45h35.3Z"/>
  <g>
    <path class="cls-2" d="m65.4,56.93l-.8,18.15c-.08,1.91-1.65,3.41-3.56,3.41H23.42c-1.91,0-3.48-1.5-3.56-3.41l-.8-18.15s15.36-2.01,23.94-2.01c6.88,0,22.39,2.01,22.39,2.01Z"/>
    <polygon class="cls-2" points="66.78 25.52 66.75 26.2 66.62 29.11 65.97 43.85 44.36 53.75 18.49 43.85 17.84 29.11 17.71 26.2 17.68 25.52 66.78 25.52"/>
  </g>
  <path class="cls-6" d="m65.97,43.85l-.57,13.07c-1.27,1.03-2.62,1.97-4.01,2.82-5.67,3.44-12.27,5.35-19.15,5.35-8.58,0-16.71-2.97-23.17-8.17l-.58-13.08h47.48Z"/>
  <path class="cls-4" d="m30.1,63.05c-4.01-1.39-7.74-3.47-11.04-6.12l-.58-13.08h10.77l.58,13.08.27,6.12Z"/>
  <g>
    <path class="cls-3" d="m34.19,78.49h-10.77c-1.91,0-3.48-1.5-3.56-3.41l-.8-18.15c3.3,2.65,7.03,4.73,11.04,6.12l.53,12.03c.08,1.91,1.65,3.41,3.56,3.41Z"/>
    <polygon class="cls-3" points="29.26 43.85 18.49 43.85 17.68 25.52 28.45 25.52 29.26 43.85"/>
    <polygon class="cls-3" points="66.75 26.2 66.62 29.11 17.84 29.11 17.71 26.2 66.75 26.2"/>
  </g>
  <path class="cls-6" d="m75.41,26.98H9.05c-.8,0-1.46-.65-1.46-1.46s.65-1.46,1.46-1.46h66.36c.8,0,1.46.65,1.46,1.46s-.65,1.46-1.46,1.46Z"/>
</svg>