<?xml version="1.0" encoding="UTF-8"?>
<svg id="Calque_1" data-name="Calque 1" xmlns="http://www.w3.org/2000/svg" viewBox="0 0 88 88">
  <defs>
    <style>
      .cls-1 {
        fill: #97002c;
      }

      .cls-1, .cls-2, .cls-3, .cls-4, .cls-5 {
        stroke-width: 0px;
      }

      .cls-2 {
        fill: #be003b;
      }

      .cls-3 {
        fill: #ff9100;
      }

      .cls-4 {
        fill: #fdbf00;
      }

      .cls-5 {
        fill: #ff193d;
      }
    </style>
  </defs>
  <path class="cls-2" d="m35.79,19.57c-1.2,0-2.18-.98-2.18-2.18v-8.43c0-1.2.98-2.18,2.18-2.18s2.18.98,2.18,2.18v8.43c0,1.2-.98,2.18-2.18,2.18Z"/>
  <path class="cls-1" d="m56.44,19.57c-1.2,0-2.18-.98-2.18-2.18v-8.43c0-1.2.98-2.18,2.18-2.18s2.18.98,2.18,2.18v8.43c0,1.2-.98,2.18-2.18,2.18Z"/>
  <path class="cls-5" d="m56.73,38.04h-21.23c-1.02,0-1.9-.7-2.13-1.69-.45-1.94-3.07-13.39-3.07-13.39-.51-2.24.28-4.53,2.07-5.98,1.79-1.45,4.2-1.74,6.28-.76,1.37.64,2.48,1.34,3.47,1.95,1.76,1.09,2.74,1.67,3.99,1.67s2.23-.57,3.99-1.67c.98-.61,2.1-1.3,3.47-1.95,2.08-.98,4.49-.69,6.28.76,1.79,1.45,2.58,3.74,2.06,5.98l-3.07,13.38c-.23.99-1.11,1.69-2.13,1.69Z"/>
  <path class="cls-2" d="m59.86,16.98c-1.79-1.45-4.2-1.74-6.28-.76-1.37.64-2.48,1.34-3.47,1.95-1.76,1.09-2.74,1.67-3.99,1.67v18.2h10.62c1.02,0,1.9-.7,2.13-1.69l3.07-13.38c.52-2.24-.28-4.54-2.07-5.98Z"/>
  <path class="cls-5" d="m50.44,81.23c-1.69,0-3.33-.56-4.67-1.58-1.54,1.17-3.48,1.72-5.43,1.52-1.95-.2-3.74-1.14-5.02-2.6-1.82.85-3.9.95-5.81.28-1.87-.66-3.39-2-4.28-3.74-1.02.39-2.12.55-3.23.48-4.23-.28-7.45-3.95-7.18-8.18.07-1.15.4-2.24.96-3.25,0-.02.02-.03.03-.05l17.61-25.01c.39-.66,1.11-1.07,1.88-1.07h0l21.82.23c.78,0,1.5.41,1.89,1.09l17.32,25.46c.83,1.36,1.22,2.92,1.11,4.51-.27,4.07-3.66,7.2-7.67,7.2-.17,0-.34,0-.51-.02-.92-.06-1.82-.28-2.65-.66-1.46,2.47-4.22,3.96-7.13,3.77-1.15-.07-2.26-.41-3.26-.96-1.28,1.44-3.06,2.35-5,2.54-.25.02-.5.04-.75.04Z"/>
  <path class="cls-2" d="m76.31,64.81l-17.32-25.46c-.39-.67-1.11-1.09-1.89-1.09l-10.99-.11v41.75c1.27.86,2.77,1.33,4.32,1.33.25,0,.5-.01.76-.04,1.94-.19,3.72-1.1,5-2.54,1,.56,2.11.89,3.26.96,2.91.19,5.67-1.3,7.13-3.77.83.37,1.74.6,2.65.66.17.01.34.02.51.02,4.02,0,7.41-3.13,7.67-7.2.1-1.6-.28-3.16-1.11-4.51Z"/>
  <path class="cls-2" d="m37.78,80.44c.79.38,1.66.63,2.55.72,1.43.15,2.86-.11,4.13-.72h-6.68Z"/>
  <path class="cls-4" d="m33.11,35.17h26.01v4.36h-26.01v-4.36Z"/>
  <path class="cls-3" d="m46.13,35.17h13v4.36h-13v-4.36Z"/>
</svg>