<?xml version="1.0" encoding="UTF-8"?>
<svg id="Calque_1" data-name="Calque 1" xmlns="http://www.w3.org/2000/svg" viewBox="0 0 88 88">
  <defs>
    <style>
      .cls-1 {
        fill: #f3eae6;
      }

      .cls-1, .cls-2, .cls-3, .cls-4, .cls-5 {
        stroke-width: 0px;
      }

      .cls-2 {
        fill: #c68d7a;
      }

      .cls-3 {
        fill: #e1d3ce;
      }

      .cls-4 {
        fill: #bc7c63;
      }

      .cls-5 {
        fill: #aa6a51;
      }
    </style>
  </defs>
  <path class="cls-4" d="m57.23,43.62l9.8-3.35c1.47-.5,2.25-2.1,1.75-3.57l-3.98-11.67c-.5-1.47-2.1-2.25-3.57-1.75L10.78,40.51c-.86.29-1.32,1.23-1.02,2.08l.71,2.07,6.92,12.4,39.85-13.45Z"/>
  <g>
    <path class="cls-5" d="m57.23,43.62l7.9-2.7-54.14-.02c-.3,0-.59.02-.88.05-.4.43-.55,1.05-.35,1.65l.71,2.07,6.92,12.4,39.85-13.45Z"/>
    <path class="cls-2" d="m78.56,47.48c-1.5-1.6-3.58-2.66-5.91-2.82l-61.67-.03c-2.19,0-3.97,1.78-3.97,3.97v10.02c0,2.19,1.77,3.97,3.97,3.97l61.67-.03h0c4.65-.33,8.32-4.21,8.32-8.95,0-2.37-.92-4.52-2.42-6.13h0Z"/>
    <path class="cls-4" d="m28.15,58.62v-10.02c0-2.1,1.64-3.82,3.71-3.96H10.99c-2.19,0-3.97,1.77-3.97,3.96v10.02c0,2.19,1.77,3.97,3.97,3.97h20.87c-2.07-.14-3.71-1.86-3.71-3.97Z"/>
    <path class="cls-4" d="m72.21,63.01h-4.94c-.25,0-.45-.2-.45-.45v-17.9c0-.25.2-.45.45-.45h4.94c.25,0,.45.2.45.45v17.9c0,.25-.2.45-.45.45Z"/>
    <path class="cls-5" d="m12.87,54.73h-.55c-.62,0-1.12-.5-1.12-1.12s.5-1.12,1.12-1.12h.55c.62,0,1.12.5,1.12,1.12s-.5,1.12-1.12,1.12Z"/>
    <path class="cls-5" d="m18.36,54.73h-.55c-.62,0-1.12-.5-1.12-1.12s.5-1.12,1.12-1.12h.55c.62,0,1.12.5,1.12,1.12s-.5,1.12-1.12,1.12Z"/>
    <path class="cls-5" d="m23.85,54.73h-.55c-.62,0-1.12-.5-1.12-1.12s.5-1.12,1.12-1.12h.55c.62,0,1.12.5,1.12,1.12s-.5,1.12-1.12,1.12Z"/>
    <path class="cls-1" d="m57.3,43.86v19.49c0,.84-.68,1.52-1.52,1.52h-21.97c-.84,0-1.52-.68-1.52-1.52v-19.49c0-.84.68-1.52,1.52-1.52h21.97c.84,0,1.52.68,1.52,1.52h0Zm-4.48,16.52v-13.56h-16.04v13.56h16.04Z"/>
  </g>
  <path class="cls-3" d="m42.85,54.73h-10.56c-.62,0-1.12-.5-1.12-1.12s.5-1.12,1.12-1.12h10.56c.62,0,1.12.5,1.12,1.12s-.5,1.12-1.12,1.12h0Z"/>
</svg>