<?xml version="1.0" encoding="UTF-8"?>
<svg id="Calque_1" data-name="Calque 1" xmlns="http://www.w3.org/2000/svg" viewBox="0 0 88 88">
  <defs>
    <style>
      .cls-1 {
        fill: #183158;
      }

      .cls-1, .cls-2, .cls-3, .cls-4, .cls-5, .cls-6 {
        stroke-width: 0px;
      }

      .cls-2 {
        fill: #2f5995;
      }

      .cls-3 {
        fill: #ff9827;
      }

      .cls-4 {
        fill: #ffbc27;
      }

      .cls-5 {
        fill: #ffc550;
      }

      .cls-6 {
        fill: #feeb9c;
      }
    </style>
  </defs>
  <path class="cls-4" d="m26.17,68.88h10.19v10.78h-10.19v-10.78Z"/>
  <path class="cls-3" d="m51.64,68.88h10.19v10.78h-10.19v-10.78Z"/>
  <path class="cls-4" d="m64.37,8.34v10.19l-2.69,2.23H26.94l-3.31-2.23v-10.19h40.75Z"/>
  <path class="cls-3" d="m64.37,8.34v10.19l-2.69,2.23h-17.69v-12.42h20.38Z"/>
  <path class="cls-6" d="m64.38,63.19c0,4.22-3.42,7.64-7.64,7.64-2.11,0-4.02-.86-5.4-2.24-1.38-1.38-2.24-3.29-2.24-5.4v-24.18c0-2.82-2.28-5.19-5.09-5.2-.03,0-.07,0-.1,0-2.77.05-5,2.31-5,5.09v24.28c0,4.22-3.42,7.64-7.64,7.64-2.11,0-4.02-.86-5.4-2.24-1.38-1.38-2.24-3.29-2.24-5.4V18.53h40.75v44.65Z"/>
  <path class="cls-5" d="m64.38,63.19c0,4.22-3.42,7.64-7.64,7.64-2.11,0-4.02-.86-5.4-2.24-1.38-1.38-2.24-3.29-2.24-5.4v-24.18c0-2.82-2.28-5.19-5.09-5.2v-15.28h20.38v44.65Z"/>
  <path class="cls-2" d="m37.11,13.44h4.18v12.3h-4.18v-12.3Z"/>
  <path class="cls-1" d="m46.71,13.44h4.18v12.3h-4.18v-12.3Z"/>
</svg>