<?xml version="1.0" encoding="UTF-8"?>
<svg id="Calque_1" data-name="Calque 1" xmlns="http://www.w3.org/2000/svg" viewBox="0 0 88 88">
  <defs>
    <style>
      .cls-1 {
        fill: #87daff;
      }

      .cls-1, .cls-2, .cls-3, .cls-4, .cls-5, .cls-6 {
        stroke-width: 0px;
      }

      .cls-2 {
        fill: #a5e9ff;
      }

      .cls-3 {
        fill: #ffdc40;
      }

      .cls-4 {
        fill: #ffea84;
      }

      .cls-5 {
        fill: #ffab15;
      }

      .cls-6 {
        fill: #00c3ff;
      }
    </style>
  </defs>
  <path class="cls-1" d="m58.12,20.64c-3.5,0-6.35-2.85-6.35-6.35s2.85-6.35,6.35-6.35,6.35,2.85,6.35,6.35-2.85,6.35-6.35,6.35Z"/>
  <path class="cls-6" d="m58.12,7.94v12.7c3.5,0,6.35-2.85,6.35-6.35s-2.85-6.35-6.35-6.35Z"/>
  <path class="cls-1" d="m29.18,29.25c-4.67,0-8.47-3.8-8.47-8.47s3.8-8.47,8.47-8.47,8.47,3.8,8.47,8.47-3.8,8.47-8.47,8.47Z"/>
  <path class="cls-6" d="m29.18,12.31v16.94c4.67,0,8.47-3.8,8.47-8.47s-3.8-8.47-8.47-8.47Z"/>
  <path class="cls-4" d="m69.55,80.06H18.45c-5.84,0-10.59-4.75-10.59-10.59v-25.41c0-5.84,4.75-10.59,10.59-10.59h51.1c5.84,0,10.59,4.75,10.59,10.59v25.41c0,5.84-4.75,10.59-10.59,10.59Z"/>
  <g>
    <path class="cls-3" d="m69.55,33.48h-25.55v46.58h25.55c5.84,0,10.59-4.75,10.59-10.59v-25.41c0-5.84-4.75-10.59-10.59-10.59Z"/>
    <path class="cls-3" d="m69.54,41.95H18.46c-1.13,0-2.12.9-2.12,2.12v25.4c0,1.11.92,2.12,2.12,2.12h51.09c1.24,0,2.12-1.07,2.12-2.12v-25.4c0-1.28-1.12-2.12-2.12-2.12Zm-2.11,25.41H20.57s0-21.17,0-21.17h46.86s0,21.17,0,21.17Z"/>
  </g>
  <path class="cls-5" d="m69.54,41.95h-25.54v4.23h23.43s0,21.17,0,21.17h-23.43v4.23h25.54c1.24,0,2.12-1.07,2.12-2.12v-25.4c0-1.28-1.12-2.12-2.12-2.12Z"/>
  <path class="cls-1" d="m46.82,50.42c-5.84,0-10.59-4.75-10.59-10.59s4.75-10.59,10.59-10.59,10.59,4.75,10.59,10.59-4.75,10.59-10.59,10.59Z"/>
  <path class="cls-6" d="m46.82,29.25v21.17c5.84,0,10.59-4.75,10.59-10.59s-4.75-10.59-10.59-10.59Z"/>
  <path class="cls-2" d="m46.82,33.48c-3.5,0-6.35,2.85-6.35,6.35s2.85,6.35,6.35,6.35,6.35-2.85,6.35-6.35-2.85-6.35-6.35-6.35Z"/>
  <path class="cls-1" d="m46.82,33.48v12.7c3.5,0,6.35-2.85,6.35-6.35s-2.85-6.35-6.35-6.35Z"/>
  <path class="cls-2" d="m29.18,16.55c-2.33,0-4.23,1.9-4.23,4.23s1.9,4.23,4.23,4.23,4.23-1.9,4.23-4.23-1.9-4.23-4.23-4.23Z"/>
  <path class="cls-1" d="m29.18,16.55v8.47c2.33,0,4.23-1.9,4.23-4.23s-1.9-4.23-4.23-4.23Z"/>
  <path class="cls-2" d="m58.12,12.17c-1.17,0-2.12.95-2.12,2.12s.95,2.12,2.12,2.12,2.12-.95,2.12-2.12-.95-2.12-2.12-2.12Z"/>
</svg>