<?xml version="1.0" encoding="UTF-8"?>
<svg id="Calque_1" data-name="Calque 1" xmlns="http://www.w3.org/2000/svg" viewBox="0 0 88 88">
  <defs>
    <style>
      .cls-1 {
        fill: #c8ad92;
      }

      .cls-1, .cls-2, .cls-3, .cls-4, .cls-5, .cls-6 {
        stroke-width: 0px;
      }

      .cls-2 {
        fill: #dfcdbd;
      }

      .cls-3 {
        fill: #bd9b7b;
      }

      .cls-4 {
        fill: #a17852;
      }

      .cls-5 {
        fill: #fec000;
      }

      .cls-6 {
        fill: #ffa81f;
      }
    </style>
  </defs>
  <path class="cls-5" d="m57.9,29.59h-4.2c0-4.75-3.87-8.62-8.62-8.62h-2.27c-4.75,0-8.62,3.87-8.62,8.62h-4.2c0-7.07,5.75-12.82,12.82-12.82h2.27c7.07,0,12.82,5.75,12.82,12.82Z"/>
  <path class="cls-6" d="m57.9,29.59h-4.2c0-4.75-3.87-8.62-8.62-8.62h-1.14v-4.2h1.14c7.07,0,12.82,5.75,12.82,12.82Z"/>
  <path class="cls-3" d="m76.79,68.92c-2.91,3.91-7.38,6.16-12.25,6.16H23.35c-4.88,0-9.34-2.24-12.25-6.16-2.91-3.92-3.77-8.84-2.37-13.51l3.48-11.58,4.92-16.35h53.64l4.82,16.02,3.58,11.91c1.41,4.67.54,9.59-2.37,13.51Z"/>
  <path class="cls-4" d="m76.79,68.92c-2.91,3.91-7.38,6.16-12.25,6.16h-20.6V27.49h26.82l4.82,16.02,3.58,11.91c1.41,4.67.54,9.59-2.37,13.51Z"/>
  <path class="cls-2" d="m75.58,43.5c-.39.9-.87,1.76-1.42,2.56-.48.7-1.02,1.36-1.6,1.97-2.84,2.97-6.83,4.81-11.26,4.81H26.34c-4.33,0-8.25-1.77-11.07-4.62-.59-.59-1.13-1.24-1.62-1.92-.56-.78-1.04-1.61-1.45-2.48l4.92-16.34h53.64l4.82,16.02Z"/>
  <path class="cls-1" d="m75.58,43.5c-.39.9-.87,1.76-1.42,2.56-.48.7-1.02,1.36-1.6,1.97-2.84,2.97-6.83,4.81-11.26,4.81h-17.35v-25.37h26.82l4.82,16.02Z"/>
  <rect class="cls-5" x="37.39" y="47.5" width="13.16" height="10.71"/>
  <rect class="cls-6" x="43.94" y="47.5" width="6.6" height="10.71"/>
</svg>