<?xml version="1.0" encoding="UTF-8"?>
<svg id="Calque_1" data-name="Calque 1" xmlns="http://www.w3.org/2000/svg" viewBox="0 0 88 88">
  <defs>
    <style>
      .cls-1 {
        fill: #575f64;
      }

      .cls-1, .cls-2, .cls-3, .cls-4, .cls-5 {
        stroke-width: 0px;
      }

      .cls-2 {
        fill: #e0f4ff;
      }

      .cls-3 {
        fill: #bbdcff;
      }

      .cls-4 {
        fill: #32393f;
      }

      .cls-5 {
        fill: #7c8388;
      }
    </style>
  </defs>
  <path class="cls-3" d="m58.61,61.39l-8.11-4.66c-1.07.74-2.27,1.35-3.56,1.83l-2.94,1.09v-31.29l2.94,1.09c1.29.48,2.48,1.09,3.56,1.83l8.09-4.66,1.18,1.32c2.17,2.42,3.84,5.45,4.82,8.49l.54,1.68-8.09,4.66c.03.4.05.81.05,1.23s-.02.83-.05,1.23l8.09,4.66-.54,1.83c-.97,3-2.59,5.8-4.8,8.33l-1.18,1.34Z"/>
  <path class="cls-1" d="m78.94,44c0-5.81-1.4-11.68-3.97-16.79l-3.58-.39,1.4-3.36c-1.62-2.49-3.58-4.8-5.81-6.9-7.73-7.12-17.78-10.57-28.26-9.7l-2.01.17v15.65c1.65-.4,3.34-.66,5.11-.66,12.05,0,21.84,9.93,21.84,21.98s-9.78,21.98-21.84,21.98c-1.77,0-3.46-.27-5.11-.66v15.64l2.01.17c1.05.09,2.1.13,3.14.13,9.35,0,18.17-3.45,25.11-9.83,2.23-2.1,4.19-4.41,5.81-6.9l-.74-3.01,2.97-.74c2.53-5.11,3.93-10.98,3.93-16.79Z"/>
  <path class="cls-4" d="m75.01,60.79c-.7,1.31-1.4,2.58-2.23,3.76l-7.47-4.32,2.18-3.76,7.51,4.32Z"/>
  <path class="cls-4" d="m74.97,27.22l-7.47,4.32-2.18-3.76,7.47-4.32c.83,1.18,1.53,2.45,2.18,3.76Z"/>
  <path class="cls-2" d="m41.82,19.83c-.74,0-1.46.04-2.18.11v4.48c.73-.08,1.44-.22,2.18-.22,10.84,0,19.65,8.96,19.65,19.8s-8.82,19.8-19.65,19.8c-.75,0-1.46-.14-2.18-.22v4.48c.72.07,1.45.11,2.18.11,13.27,0,24.02-10.9,24.02-24.17s-10.75-24.17-24.02-24.17Z"/>
  <path class="cls-1" d="m48.37,17.96l-2.71,4.15,2.71,1.09v12.18l-2.18,4.6,2.18.83v12.37l-2.36,3.89,2.36,1.35v11.92c0,6.03-4.89,10.92-10.92,10.92h-2.18l-2.01-4.02-2.36,4.02h-4.37s-1.53-3.62-1.66-3.62c0,.26-2.71,3.62-2.71,3.62h-2.18c-6.03,0-10.92-4.89-10.92-10.92v-11.92l2.01-1.62-2.01-3.67v-12.33l1.92-1.27-1.92-3.97v-12.37l3.28-1.18-3.28-4.11v-.26c0-6.03,4.89-10.92,10.92-10.92h2.18s1.66,3.1,1.92,2.93c.26-.22,2.45-2.93,2.45-2.93h4.37l1.53,2.45,2.84-2.45h2.18c6.03,0,10.92,4.89,10.92,10.92v.31Z"/>
  <path class="cls-4" d="m48.37,17.96l-2.71,4.15,2.71,1.09v12.18l-2.18,4.6,2.18.83v12.37l-2.36,3.89,2.36,1.35v11.92c0,6.03-4.89,10.92-10.92,10.92h-2.18l-2.01-4.02-2.36,4.02h-2.18V6.73h2.18l1.53,2.45,2.84-2.45h2.18c6.03,0,10.92,4.89,10.92,10.92v.31Z"/>
  <path class="cls-5" d="m26.53,6.73v74.54h-4.37v-14.11l-13.1-8.73v-5.28l13.1,8.78v-12.37l-13.1-8.73v-5.24l13.1,8.74v-12.37l-13.1-8.73v-5.28l13.1,8.78V6.73h4.37Z"/>
  <path class="cls-1" d="m35.27,31.93v12.37l13.1-8.92v5.43l-13.1,8.73v12.37l13.1-8.74v5.24l-13.1,8.73v14.11h-4.37V6.73h4.37v19.96l13.1-8.74v5.24l-13.1,8.73Z"/>
</svg>