<?xml version="1.0" encoding="UTF-8"?>
<svg id="Calque_1" data-name="Calque 1" xmlns="http://www.w3.org/2000/svg" viewBox="0 0 88 88">
  <defs>
    <style>
      .cls-1 {
        fill: #474754;
      }

      .cls-1, .cls-2, .cls-3, .cls-4, .cls-5, .cls-6, .cls-7, .cls-8, .cls-9 {
        stroke-width: 0px;
      }

      .cls-2 {
        fill: #535362;
      }

      .cls-3 {
        fill: #d5e8fe;
      }

      .cls-4 {
        fill: #72bbff;
      }

      .cls-5 {
        fill: #edf5ff;
      }

      .cls-6 {
        fill: #f37;
      }

      .cls-7 {
        fill: #ecbd2c;
      }

      .cls-8 {
        fill: #0069f5;
      }

      .cls-9 {
        fill: #0094ff;
      }
    </style>
  </defs>
  <path class="cls-4" d="m39.62,22.1H14.43l-7.67,10.22v13.55l1.46,2.51-1.46,1.87v3.53c0,1.2.28,2.34.77,3.36l18.94,2.19,13.14-2.19,2.19-17.52-2.19-17.52Z"/>
  <path class="cls-9" d="m80.67,45.87c-.78-3.25-2.12-5.48-2.47-6.25h-13.37c-1.25-1.74-7.75-10.79-9.09-12.66l-.06-.07c-2.61-3.04-6.41-4.79-10.42-4.79h-5.65v35.04l17.52,2.19,22.99-2.19c.77-2.29,1.13-4.59,1.1-6.89l-2.04-1.67,1.48-2.71Z"/>
  <path class="cls-9" d="m7.53,57.14c1.25,2.59,3.91,4.38,6.97,4.38h25.11l2.19-2.19-2.19-2.19H7.53Z"/>
  <path class="cls-8" d="m39.62,61.52h38.59c.39-.82,1.2-2.22,1.93-4.38h-40.52v4.38Z"/>
  <path class="cls-5" d="m26.48,26.48h10.95v13.14h-10.95v-13.14Z"/>
  <path class="cls-3" d="m59.44,39.62l-7.14-9.95c-1.78-2.03-4.33-3.19-7.03-3.19h-3.46v13.14h17.63Z"/>
  <path class="cls-5" d="m22.1,26.48h-5.48l-5.48,7.3v5.84h10.95v-13.14Z"/>
  <path class="cls-1" d="m39.62,48.38h6.57v4.38h-6.57v-4.38Z"/>
  <circle class="cls-1" cx="61.52" cy="57.14" r="8.76"/>
  <circle class="cls-3" cx="61.52" cy="57.14" r="4.38"/>
  <circle class="cls-2" cx="24.29" cy="57.14" r="8.76"/>
  <circle class="cls-5" cx="24.29" cy="57.14" r="4.38"/>
  <path class="cls-6" d="m6.77,45.87h4.38v4.38h-4.38v-4.38Z"/>
  <path class="cls-7" d="m76.85,45.87v4.38h4.38c-.02-1.46-.21-2.92-.56-4.38h-3.82Z"/>
</svg>