<?xml version="1.0" encoding="UTF-8"?>
<svg id="Calque_1" data-name="Calque 1" xmlns="http://www.w3.org/2000/svg" viewBox="0 0 88 88">
  <defs>
    <style>
      .cls-1 {
        fill: #60dd4e;
      }

      .cls-1, .cls-2, .cls-3, .cls-4, .cls-5, .cls-6, .cls-7, .cls-8, .cls-9, .cls-10, .cls-11, .cls-12 {
        stroke-width: 0px;
      }

      .cls-2 {
        fill: #644b31;
      }

      .cls-3 {
        fill: #8a6746;
      }

      .cls-4 {
        fill: #ca1c00;
      }

      .cls-5 {
        fill: #dfcdbd;
      }

      .cls-6 {
        fill: #b6efab;
      }

      .cls-7 {
        fill: #95e0ba;
      }

      .cls-8 {
        fill: #f1e7df;
      }

      .cls-9 {
        fill: #ffdc2d;
      }

      .cls-10 {
        fill: #ff4f1a;
      }

      .cls-11 {
        fill: #ffc002;
      }

      .cls-12 {
        fill: #00bb64;
      }
    </style>
  </defs>
  <path class="cls-10" d="m36.68,14.56v18.68h-16.67v-12.51c0-2.64,1.43-5.08,3.73-6.38l4.76-2.68,1.65-.93c1.37-.77,3-.76,4.36.04,1.36.79,2.17,2.21,2.17,3.78Z"/>
  <path class="cls-4" d="m36.68,33.23h-8.18V11.67l1.65-.93c1.37-.77,3-.76,4.36.04,1.36.79,2.17,2.21,2.17,3.78v18.68h0Z"/>
  <rect class="cls-8" x="17.75" y="32.09" width="21.51" height="10"/>
  <rect class="cls-5" x="28.5" y="32.09" width="10.75" height="10"/>
  <rect class="cls-3" x="15.63" y="41.17" width="25.74" height="36.66"/>
  <rect class="cls-2" x="28.5" y="41.17" width="12.87" height="36.66"/>
  <path class="cls-1" d="m72.37,49.03c0,12.7-10.33,23.03-23.03,23.03s-23.03-10.33-23.03-23.03,10.33-23.03,23.03-23.03c12.7,0,23.03,10.33,23.03,23.03Z"/>
  <path class="cls-12" d="m72.37,49.03c0,12.7-10.33,23.03-23.03,23.03V26c12.7,0,23.03,10.33,23.03,23.03Z"/>
  <path class="cls-6" d="m65.83,49.03c0,9.09-7.39,16.48-16.48,16.48s-16.49-7.39-16.49-16.48,7.39-16.49,16.49-16.49c9.09,0,16.48,7.39,16.48,16.49Z"/>
  <path class="cls-7" d="m49.34,65.51v-32.97c9.09,0,16.48,7.39,16.48,16.49s-7.39,16.48-16.48,16.48Z"/>
  <path class="cls-9" d="m71.09,66.92v5.65c0,2.9-2.36,5.27-5.27,5.27h-32.97c-2.9,0-5.27-2.36-5.27-5.27v-5.65h43.5Z"/>
  <path class="cls-11" d="m71.09,66.92v5.65c0,2.9-2.36,5.27-5.27,5.27h-16.48v-10.91h21.75Z"/>
</svg>