<?xml version="1.0" encoding="UTF-8"?>
<svg id="Calque_1" data-name="Calque 1" xmlns="http://www.w3.org/2000/svg" viewBox="0 0 88 88">
  <defs>
    <style>
      .cls-1 {
        fill: #625fb2;
      }

      .cls-1, .cls-2, .cls-3, .cls-4, .cls-5, .cls-6 {
        stroke-width: 0px;
      }

      .cls-2 {
        fill: #47449d;
      }

      .cls-3 {
        fill: #92f785;
      }

      .cls-4 {
        fill: #353376;
      }

      .cls-5 {
        fill: #2ff761;
      }

      .cls-6 {
        fill: #7e7bc6;
      }
    </style>
  </defs>
  <path class="cls-2" d="m49.61,50.84h-23.88v4.21h21.62l4.48,6.71h12.69v-4.21h-10.43l-4.48-6.71Z"/>
  <path class="cls-1" d="m54.08,30.44h10.43v-4.21h-12.69l-4.48,6.71h-21.62v4.21h23.88l4.48-6.71Z"/>
  <path class="cls-2" d="m25.73,42.95h46.9v3.16H25.73v-3.16Z"/>
  <path class="cls-1" d="m25.73,41.89h46.9v2.11H25.73v-2.11Z"/>
  <path class="cls-4" d="m29.94,44l-5.53-6.32-5.53,6.32c0,11.21,7.53,20.7,17.8,23.67v-5.77c0-3.43-1.27-6.56-3.37-8.95-2.1-2.39-3.37-5.52-3.37-8.95h0Z"/>
  <path class="cls-2" d="m29.94,44c0-3.43,1.27-6.56,3.37-8.95,2.1-2.39,3.37-5.52,3.37-8.95v-5.77c-10.27,2.97-17.8,12.46-17.8,23.67,0,0,11.06,0,11.06,0h0Z"/>
  <path class="cls-1" d="m20.99,44l-4.48-2.11-4.48,2.11c0,1.05.05,2.09.15,3.12l-3.99,3.65c.28,1.45.65,2.9,1.12,4.34s1.02,2.83,1.65,4.17l5.37.61c1.06,1.8,2.29,3.49,3.67,5.04l-1.08,5.3c1.08,1.01,2.23,1.96,3.46,2.85s2.49,1.69,3.78,2.41l4.7-2.66c1.89.83,3.87,1.48,5.94,1.93l2.24,4.92c1.47.18,2.96.28,4.48.28s3.01-.09,4.48-.28v-13.15h-4.48c-12.44,0-22.53-10.09-22.53-22.53h0Z"/>
  <path class="cls-6" d="m20.99,44c0-12.44,10.09-22.53,22.53-22.53h4.48v-13.15c-1.47-.18-2.96-.28-4.48-.28s-3.01.09-4.48.28l-2.24,4.92c-2.06.45-4.05,1.1-5.94,1.93l-4.7-2.66c-1.29.71-2.56,1.52-3.78,2.41s-2.38,1.85-3.46,2.85l1.08,5.3c-1.38,1.55-2.61,3.24-3.67,5.04l-5.37.61c-.63,1.34-1.18,2.73-1.65,4.17-.47,1.44-.84,2.89-1.12,4.34l3.99,3.65c-.1,1.03-.15,2.07-.15,3.12,0,0,8.95,0,8.95,0h0Z"/>
  <circle class="cls-5" cx="64.78" cy="59.66" r="4.48"/>
  <circle class="cls-5" cx="64.78" cy="28.34" r="4.48"/>
  <path class="cls-1" d="m54.84,70.72h4.21v4.21h-4.21v-4.21Z"/>
  <path class="cls-6" d="m54.84,13.06h4.21v4.21h-4.21v-4.21Z"/>
  <path class="cls-5" d="m75.32,48.48c-2.47,0-4.48-2-4.48-4.48l4.48-2.24,4.48,2.24c0,2.47-2,4.48-4.48,4.48Z"/>
  <path class="cls-3" d="m79.79,44h-8.95c0-2.47,2-4.48,4.48-4.48s4.48,2,4.48,4.48Z"/>
</svg>