<?xml version="1.0" encoding="UTF-8"?>
<svg id="Calque_1" data-name="Calque 1" xmlns="http://www.w3.org/2000/svg" viewBox="0 0 88 88">
  <defs>
    <style>
      .cls-1 {
        fill: #292929;
      }

      .cls-1, .cls-2, .cls-3, .cls-4, .cls-5, .cls-6, .cls-7, .cls-8 {
        stroke-width: 0px;
      }

      .cls-2 {
        fill: #444;
      }

      .cls-3 {
        fill: #dfd7d5;
      }

      .cls-4 {
        fill: #ede9e8;
      }

      .cls-5 {
        fill: #ff9f00;
      }

      .cls-6 {
        fill: #ff193d;
      }

      .cls-7 {
        fill: #ffd400;
      }

      .cls-8 {
        fill: #ff4949;
      }
    </style>
  </defs>
  <polygon class="cls-6" points="75.06 42.46 65.2 37.53 65.2 23.2 69.53 23.2 75.02 28.68 77 38.59 75.06 42.46"/>
  <path class="cls-2" d="m71.7,68.68c-3.58,0-6.5-2.91-6.5-6.5v-4.33c0-1.19-.97-2.17-2.17-2.17h-4.33v-4.33h4.33c3.58,0,6.5,2.91,6.5,6.5v4.33c0,1.19.97,2.17,2.17,2.17s2.17-.97,2.17-2.17v-29.3c0-2.47-1.38-4.7-3.59-5.81l-12.54-6.27,1.94-3.87,12.54,6.27c3.69,1.85,5.98,5.56,5.98,9.68v29.3c0,3.58-2.91,6.5-6.5,6.5Z"/>
  <path class="cls-8" d="m60.87,14.54v56.3H17.56V14.54c0-3.59,2.9-6.5,6.5-6.5h30.32c3.59,0,6.5,2.9,6.5,6.5Z"/>
  <path class="cls-6" d="m60.87,14.54v56.3h-21.65V8.04h15.16c3.59,0,6.5,2.9,6.5,6.5Z"/>
  <path class="cls-2" d="m58.7,68.68H19.73c-3.59,0-6.5,3.05-6.5,6.64v6.64h51.97v-6.64c0-3.59-2.9-6.64-6.5-6.64Z"/>
  <path class="cls-4" d="m26.22,16.7v21.65h25.99v-21.65h-25.99Z"/>
  <rect class="cls-3" x="39.21" y="16.7" width="12.99" height="21.65"/>
  <path class="cls-7" d="m40.82,43.43l-1.6-1.82-1.6,1.82c-1.17,1.3-7.06,8.06-7.06,12.26,0,4.76,3.9,8.66,8.66,8.66s8.66-3.9,8.66-8.66c0-4.2-5.89-10.96-7.06-12.26Z"/>
  <path class="cls-5" d="m39.21,64.34v-22.74l1.6,1.82c1.17,1.3,7.06,8.06,7.06,12.26,0,4.76-3.9,8.66-8.66,8.66Z"/>
  <path class="cls-1" d="m65.2,75.32v6.64h-25.99v-13.28h19.49c3.59,0,6.5,3.05,6.5,6.64Z"/>
</svg>