<?xml version="1.0" encoding="UTF-8"?>
<svg id="Calque_1" data-name="Calque 1" xmlns="http://www.w3.org/2000/svg" viewBox="0 0 88 88">
  <defs>
    <style>
      .cls-1 {
        fill: #fed953;
      }

      .cls-1, .cls-2, .cls-3 {
        stroke-width: 0px;
      }

      .cls-2 {
        fill: #feb55e;
      }

      .cls-3 {
        fill: #fff594;
      }
    </style>
  </defs>
  <g>
    <path class="cls-1" d="m77.64,35.02H10.36c-1,0-1.87-.71-2.06-1.7s.35-1.97,1.28-2.34l39.08-15.52c.2-.08.4-.13.62-.14,11.14-.84,18.77,3.74,23.21,7.72,4.79,4.3,6.95,8.81,7.04,8.99.31.65.26,1.41-.12,2.01s-1.05.97-1.77.97h0Z"/>
    <path class="cls-2" d="m79.53,32.03c-.09-.19-2.25-4.69-7.04-8.99-4.36-3.92-11.8-8.4-22.62-7.76v19.74h27.76c.72,0,1.38-.37,1.77-.97s.43-1.37.12-2.02Z"/>
  </g>
  <g>
    <path class="cls-3" d="m73.45,72.79h-26.93c-.61,0-1.19-.26-1.58-.73-.4-.46-.58-1.07-.49-1.67.03-.2.04-.41.04-.61,0-2.27-1.85-4.12-4.12-4.12s-4.12,1.85-4.12,4.12c0,.2.02.4.04.61.09.6-.09,1.21-.49,1.67-.4.46-.98.72-1.58.72H14.55c-3.46,0-6.28-2.82-6.28-6.28v-12.05c0-1.16.94-2.09,2.09-2.09,1.48,0,2.69-1.21,2.69-2.69s-1.21-2.69-2.69-2.69c-1.16,0-2.1-.94-2.1-2.09v-11.97c0-1.16.94-2.09,2.09-2.09h67.27c1.16,0,2.09.94,2.09,2.09v33.58c0,3.46-2.82,6.28-6.28,6.28h0Z"/>
    <path class="cls-1" d="m77.64,30.83h-27.76v41.95h23.58c3.46,0,6.28-2.82,6.28-6.28v-33.58c0-1.16-.94-2.09-2.09-2.09h0Z"/>
  </g>
  <g>
    <path class="cls-1" d="m29.2,54.77c-3.89,0-7.05-3.16-7.05-7.05s3.16-7.05,7.05-7.05,7.05,3.16,7.05,7.05-3.16,7.05-7.05,7.05Zm0-9.9c-1.58,0-2.86,1.28-2.86,2.86s1.28,2.86,2.86,2.86,2.86-1.28,2.86-2.86-1.28-2.86-2.86-2.86Z"/>
    <path class="cls-2" d="m64.94,64.4c-3.79,0-6.88-3.08-6.88-6.88s3.08-6.88,6.88-6.88,6.88,3.08,6.88,6.88-3.08,6.88-6.88,6.88Zm0-9.56c-1.48,0-2.69,1.21-2.69,2.69s1.21,2.69,2.69,2.69,2.69-1.21,2.69-2.69-1.21-2.69-2.69-2.69Z"/>
    <path class="cls-2" d="m67.73,41.03c-1.47.02-2.52-1.55-1.93-2.89.62-1.53,2.77-1.75,3.67-.36.93,1.37-.09,3.27-1.74,3.25Z"/>
    <g>
      <path class="cls-1" d="m45.4,46.62c-1.56.02-2.6-1.71-1.85-3.08.81-1.55,3.12-1.44,3.78.19.58,1.35-.47,2.91-1.93,2.89Z"/>
      <path class="cls-1" d="m19.9,63.16c-1.47.02-2.51-1.54-1.93-2.89.66-1.62,2.97-1.74,3.78-.19.75,1.37-.28,3.09-1.85,3.08h0Z"/>
    </g>
  </g>
</svg>